# xmcd
#
# Track frame offsets: 
#        150
#        14172
#        28275
#        42672
#        59757
#        77082
#        98010
#        115535
#        126880
#        144672
#        159855
#        177420
#        199980
#        213017
#        225830
#        238957
#
# Disc length: 3364 seconds
#
# Revision: 1
# Processed by: cddbd v1.5.2PL0 Copyright (c) Steve Scherf et al.
# Submitted via: ExactAudioCopy v0.99pb3
#
DISCID=e00d2210
DTITLE=The wannadies - Yeah
DYEAR=2000
DGENRE=Indie
TTITLE0=I Love Myself
TTITLE1=Yeah
TTITLE2=No Holiday
TTITLE3=Big Fan
TTITLE4=Don't Like You
TTITLE5=String Song
TTITLE6=Can't See Me Now
TTITLE7=Kill You
TTITLE8=(You)
TTITLE9=Low Enough
TTITLE10=Idiot Boy
TTITLE11=Friend or Foe
TTITLE12=Ball
TTITLE13=Have Another One
TTITLE14=Trick Me
TTITLE15=In Your Face
EXTD=
EXTT0=
EXTT1=
EXTT2=
EXTT3=
EXTT4=
EXTT5=
EXTT6=
EXTT7=
EXTT8=
EXTT9=
EXTT10=
EXTT11=
EXTT12=
EXTT13=
EXTT14=
EXTT15=
PLAYORDER=
